<svg width="13" height="20" viewBox="0 0 13 20" fill="none" xmlns="http://www.w3.org/2000/svg">
<path d="M12.4137 7.5757C12.3314 7.45389 12.2204 7.35417 12.0905 7.2853C11.9606 7.21644 11.8158 7.18054 11.6687 7.18076H8.97595V5.38557H10.9507C11.1887 5.38557 11.417 5.291 11.5854 5.12267C11.7537 4.95434 11.8483 4.72603 11.8483 4.48798V0.897595C11.8483 0.659538 11.7537 0.431231 11.5854 0.262899C11.417 0.0945678 11.1887 0 10.9507 0H8.07836C6.69763 0 5.37345 0.548493 4.39712 1.52482C3.4208 2.50114 2.8723 3.82532 2.8723 5.20605V7.18076H0.897595C0.659538 7.18076 0.431231 7.27533 0.2629 7.44366C0.094568 7.61199 0 7.8403 0 8.07836V11.6687C0 11.9068 0.094568 12.1351 0.2629 12.3034C0.431231 12.4718 0.659538 12.5663 0.897595 12.5663H2.8723V18.8495C2.8723 19.0876 2.96687 19.3159 3.1352 19.4842C3.30354 19.6525 3.53184 19.7471 3.7699 19.7471H8.07836C8.31641 19.7471 8.54472 19.6525 8.71305 19.4842C8.88138 19.3159 8.97595 19.0876 8.97595 18.8495V12.5663H10.2326C10.4124 12.5665 10.588 12.5127 10.7369 12.4119C10.8857 12.3111 11.0008 12.1679 11.0673 12.0008L12.5035 8.41047C12.5577 8.27455 12.5779 8.12744 12.5622 7.98194C12.5466 7.83645 12.4956 7.69699 12.4137 7.5757ZM9.62222 10.7711H8.07836C7.8403 10.7711 7.61199 10.8657 7.44366 11.034C7.27533 11.2024 7.18076 11.4307 7.18076 11.6687V17.9519H4.66749V11.6687C4.66749 11.4307 4.57293 11.2024 4.40459 11.034C4.23626 10.8657 4.00796 10.7711 3.7699 10.7711H1.79519V8.97595H3.7699C4.00796 8.97595 4.23626 8.88138 4.40459 8.71305C4.57293 8.54472 4.66749 8.31641 4.66749 8.07836V5.20605C4.66986 4.30216 5.02998 3.43597 5.66913 2.79683C6.30828 2.15768 7.17447 1.79756 8.07836 1.79519H10.0531V3.59038H9.33499C9.03108 3.54611 8.72132 3.56469 8.42488 3.64497C8.12844 3.72526 7.85164 3.86554 7.61161 4.05713C7.46594 4.20963 7.35267 4.39005 7.27863 4.58751C7.20458 4.78497 7.17129 4.99538 7.18076 5.20605V8.07836C7.18076 8.31641 7.27533 8.54472 7.44366 8.71305C7.61199 8.88138 7.8403 8.97595 8.07836 8.97595H10.3403L9.62222 10.7711Z" fill="white"/>
</svg>
