<svg width="19" height="19" viewBox="0 0 19 19" fill="none" xmlns="http://www.w3.org/2000/svg">
<path d="M9.54333 5.38544C8.6557 5.38544 7.78799 5.64865 7.04995 6.1418C6.3119 6.63494 5.73667 7.33587 5.39699 8.15594C5.0573 8.97601 4.96842 9.87839 5.14159 10.749C5.31476 11.6196 5.7422 12.4192 6.36986 13.0469C6.99751 13.6745 7.79719 14.102 8.66777 14.2752C9.53836 14.4483 10.4407 14.3594 11.2608 14.0198C12.0809 13.6801 12.7818 13.1048 13.275 12.3668C13.7681 11.6288 14.0313 10.761 14.0313 9.87341C14.0313 8.68313 13.5585 7.54159 12.7168 6.69993C11.8752 5.85828 10.7336 5.38544 9.54333 5.38544ZM9.54333 12.5662C9.01075 12.5662 8.49013 12.4083 8.0473 12.1124C7.60448 11.8165 7.25934 11.3959 7.05552 10.9039C6.85171 10.4119 6.79839 9.87043 6.90229 9.34808C7.00619 8.82573 7.26265 8.34592 7.63925 7.96933C8.01584 7.59273 8.49565 7.33627 9.018 7.23237C9.54035 7.12847 10.0818 7.18179 10.5738 7.3856C11.0659 7.58941 11.4864 7.93455 11.7823 8.37738C12.0782 8.82021 12.2361 9.34083 12.2361 9.87341C12.2361 10.5876 11.9524 11.2725 11.4474 11.7775C10.9424 12.2825 10.2575 12.5662 9.54333 12.5662ZM14.0313 4.48784C13.8538 4.48784 13.6802 4.54048 13.5326 4.63911C13.385 4.73774 13.27 4.87793 13.202 5.04194C13.1341 5.20596 13.1163 5.38643 13.151 5.56055C13.1856 5.73466 13.2711 5.8946 13.3966 6.02013C13.5221 6.14566 13.6821 6.23115 13.8562 6.26578C14.0303 6.30042 14.2108 6.28264 14.3748 6.21471C14.5388 6.14677 14.679 6.03172 14.7776 5.88411C14.8763 5.7365 14.9289 5.56296 14.9289 5.38544C14.9289 5.14738 14.8343 4.91907 14.666 4.75074C14.4977 4.58241 14.2694 4.48784 14.0313 4.48784ZM18.4654 6.49845C18.4506 5.73139 18.3048 4.97249 18.0346 4.25447C17.784 3.60108 17.3987 3.0077 16.9039 2.51286C16.409 2.01802 15.8157 1.63279 15.1623 1.38216C14.4443 1.1119 13.6854 0.966188 12.9183 0.951317C12.0476 0.897461 11.7604 0.897461 9.54333 0.897461C7.32627 0.897461 7.03904 0.897461 6.16838 0.951317C5.40131 0.966188 4.64242 1.1119 3.92439 1.38216C3.271 1.63279 2.67762 2.01802 2.18278 2.51286C1.68794 3.0077 1.30271 3.60108 1.05208 4.25447C0.781818 4.97249 0.63611 5.73139 0.621238 6.49845C0.567383 7.3781 0.567383 7.66533 0.567383 9.87341C0.567383 12.0815 0.567383 12.3687 0.621238 13.2484C0.63611 14.0154 0.781818 14.7743 1.05208 15.4924C1.30271 16.1457 1.68794 16.7391 2.18278 17.234C2.67762 17.7288 3.271 18.114 3.92439 18.3647C4.64242 18.6349 5.40131 18.7806 6.16838 18.7955C7.06597 18.7955 7.32627 18.8494 9.54333 18.8494C11.7604 18.8494 12.0476 18.8494 12.9183 18.7955C13.6854 18.7806 14.4443 18.6349 15.1623 18.3647C15.8157 18.114 16.409 17.7288 16.9039 17.234C17.3987 16.7391 17.784 16.1457 18.0346 15.4924C18.3048 14.7743 18.4506 14.0154 18.4654 13.2484C18.4654 12.3508 18.5193 12.0815 18.5193 9.87341C18.5193 7.66533 18.5193 7.3781 18.4654 6.49845ZM16.6702 13.1676C16.6545 13.7372 16.5485 14.3007 16.3561 14.8371C16.197 15.2611 15.9456 15.6443 15.6201 15.9591C15.3072 16.2848 14.9232 16.5336 14.4981 16.6862C13.9604 16.8864 13.3931 16.9956 12.8196 17.0093C11.9758 17.0093 11.7155 17.0542 9.53436 17.0542C7.3532 17.0542 7.10188 17.0542 6.25814 17.0542C5.68549 17.0394 5.11887 16.9333 4.57963 16.74C4.15566 16.581 3.7724 16.3295 3.45764 16.004C3.13195 15.6911 2.88311 15.3071 2.73059 14.882C2.53115 14.3472 2.42195 13.783 2.40745 13.2125C2.40745 12.3149 2.40745 12.0905 2.40745 9.91829C2.40745 7.74611 2.40745 7.48581 2.40745 6.62412C2.42292 6.05074 2.53208 5.48375 2.73059 4.94562C2.88547 4.52431 3.13409 4.14372 3.45764 3.8326C3.77052 3.50691 4.15454 3.25806 4.57963 3.10555C5.11728 2.90529 5.68456 2.79608 6.25814 2.78241C7.10188 2.69265 7.36218 2.69265 9.54333 2.69265C11.7245 2.69265 11.9848 2.69265 12.8285 2.69265C13.4049 2.70731 13.975 2.81647 14.516 3.01579C14.9373 3.17067 15.3179 3.41928 15.629 3.74284C15.9547 4.05572 16.2036 4.43974 16.3561 4.86483C16.5758 5.41107 16.7003 5.99094 16.7241 6.57924C16.7241 7.47683 16.769 7.70123 16.769 9.87341C16.769 12.0456 16.7241 12.3059 16.7241 13.1676H16.6702Z" fill="#595A71"/>
</svg>
